<svg width="651" height="662" viewBox="0 0 651 662" fill="none" xmlns="http://www.w3.org/2000/svg">
<path d="M256.605 40.9451C239.46 -3.66423 154.637 -25.6931 168.634 63.1279C170.929 77.6916 171.16 102.769 168.634 133.293C166.32 161.255 121.021 176.555 107.116 212.685C85.3087 269.347 166.845 308.842 153.87 338.628C136.875 377.641 84.839 394.567 56.0562 415.911C28.9603 436.004 11.7011 468.244 5.07414 501.39C-6.55196 559.541 14.5465 620.481 72.6661 623.513C101.76 625.031 140.132 612.037 188.32 576.918C209.865 561.216 228.863 548.275 245.747 537.812C289.205 510.881 277.521 574.583 329.196 576.918C358.641 578.248 389.393 523.253 412.673 552.588C429.227 573.446 448.223 598.755 475.351 624.774C522.992 670.469 582.556 677.196 590.981 611.981C594.958 581.196 587.54 534.379 562.091 468.061C545.806 425.622 586.314 427.118 590.981 372.733C595.649 318.349 557.483 293.268 585.111 270.76L585.664 270.309C606.723 253.154 629.183 234.858 641.449 199.717C652.015 169.446 651.006 139.465 641.449 116.428C631.222 91.7724 611.205 75.0702 585.111 74.4778C558.929 73.8833 526.629 89.5075 491.961 129.59C469.103 156.017 453.624 94.5252 412.673 100.811C371.723 107.097 366.032 166.428 341.5 149.22C298.886 119.327 276.685 93.1904 256.605 40.9451Z" stroke="white" stroke-width="3"/>
<path d="M339.319 284.279C336.71 277.43 324.55 279.228 323.934 286.65C323.234 295.1 327.505 306.112 327.011 314.583C326.058 330.938 320.28 335.593 308.776 344.213C304.652 347.298 302.026 352.247 301.017 357.336C299.248 366.263 302.459 375.618 311.304 376.084C315.731 376.317 321.571 374.322 328.904 368.931C332.183 366.52 335.074 364.534 337.644 362.927C348.83 355.375 359.241 361.293 363.048 365.196C365.567 368.398 368.458 372.283 372.586 376.277C379.837 383.292 390.816 382.373 390.184 374.313C389.29 362.927 369.851 320.426 390.184 313.015C399.629 309.572 399.318 301.774 397.864 298.238C396.308 294.453 393.261 291.889 389.29 291.798C385.306 291.706 378.705 298.238 375.114 300.258C361.858 307.718 350.03 311.573 339.319 284.279Z" stroke="white" stroke-width="3"/>
<path d="M182.817 82.5608C170.394 1.70281 247.908 21.859 263.627 62.7544C282.872 112.751 304.148 136.183 344.126 162.707C366.611 178.272 372.021 124.098 409.517 118.21C447.013 112.322 461.338 168.123 482.316 144.083C514.222 107.624 543.888 93.6402 567.852 94.5226C591.66 95.2212 609.913 110.673 619.135 133.359C627.746 154.574 628.457 182.105 618.414 209.801C605.306 242.722 586.377 263.213 567.153 279.968C542.043 300.81 576.535 323.832 571.963 373.344C567.391 422.856 530.119 421.358 544.607 459.654C567.387 519.63 573.874 561.875 570.026 589.595C562.187 648.753 507.668 642.41 463.913 600.744C438.823 576.979 421.048 553.99 405.478 535.353C384.062 508.809 355.818 559.023 328.729 558.03C281.377 556.15 291.708 498.359 251.901 522.964C236.272 532.587 218.752 544.4 198.948 558.676C154.298 590.586 119.093 601.564 92.7816 599.378C39.9458 596.39 20.8315 540.719 31.5279 487.608C37.6756 457.247 53.5329 427.734 78.3743 409.313C105.609 389.117 153.482 373.296 169.031 336.326C180.86 308.844 106.586 272.472 126.344 220.48C138.913 187.169 180.048 172.81 182.185 146.988C184.511 118.882 184.592 95.8581 182.817 82.5608Z" stroke="white" stroke-width="3"/>
<path d="M197.635 102.812C186.805 30.1824 256.897 48.3997 271.167 85.4463C289.548 133.025 309.868 153.676 347.154 176.746C367.558 190.617 372.679 141.779 406.666 136.308C440.653 130.838 453.802 180.765 472.872 159.192C501.967 126.475 528.956 114.177 550.667 115.343C572.155 116.145 588.617 130.295 596.82 150.938C604.474 170.26 604.884 195.25 595.379 220.28C581.555 250.564 566.473 273.164 549.27 289.33C526.716 308.437 557.482 329.323 553.012 373.801C548.543 418.28 514.562 416.783 527.231 450.811C547.308 504.25 552.854 541.784 549.141 566.349C541.9 619.256 492.505 613.32 452.7 575.819C429.685 554.386 413.156 533.791 398.592 517.437C379.072 493.77 353.377 539.039 328.683 538.387C285.725 536.965 294.688 485.275 258.589 507.474C244.238 516.225 228.223 526.872 210.188 539.674C169.142 568.271 137.154 577.198 113.664 574.352C66.1895 571.418 49.0873 521.199 58.8384 473.304C64.498 445.828 78.9301 419.138 101.481 402.451C127.129 383.469 170.767 368.808 184.849 334.005C195.513 308.917 128.61 275.787 146.291 228.638C157.504 198.256 194.415 184.885 196.373 161.29C198.496 135.694 198.888 114.8 197.635 102.812Z" stroke="white" stroke-width="3"/>
<path d="M211.814 122.246C202.56 57.5796 265.338 73.9241 278.18 107.257C295.727 152.586 315.123 170.532 349.774 190.233C368.129 202.461 372.969 158.781 403.499 153.708C434.029 148.635 446.024 192.872 463.213 173.686C489.543 144.592 513.897 133.934 533.388 135.389C552.589 136.297 567.286 149.196 574.482 167.87C581.19 185.368 581.302 207.908 572.318 230.364C557.757 258.119 546.499 282.902 531.291 298.536C511.258 315.977 538.345 334.803 533.971 374.409C529.597 414.015 498.854 412.517 509.724 442.4C527.129 489.499 531.742 522.46 528.159 543.96C521.504 590.81 477.157 585.259 441.241 551.787C420.264 532.608 404.957 514.332 391.376 500.199C373.721 479.323 350.537 519.812 328.2 519.496C289.568 518.529 297.177 472.75 264.73 492.624C251.635 500.534 237.099 510.054 220.805 521.429C183.299 546.817 154.48 553.729 133.776 550.214C91.5891 547.324 76.4728 502.375 85.2936 459.52C90.4738 434.83 103.503 410.865 123.798 395.852C147.899 378.017 187.37 364.463 200.006 331.702C209.523 308.919 149.888 278.912 165.518 236.433C175.393 208.87 208.137 196.441 209.918 174.985C211.841 151.808 212.545 132.967 211.814 122.246Z" stroke="white" stroke-width="3"/>
<path d="M226.625 141.679C218.965 84.9782 274.318 99.4496 285.709 129.067C302.39 172.151 320.829 187.39 352.784 203.72C369.057 214.305 373.608 175.784 400.627 171.109C427.646 166.433 438.464 204.977 453.743 188.179C477.262 162.709 498.936 153.693 516.173 155.436C533.053 156.451 545.959 168.099 552.136 184.804C557.885 200.479 557.698 220.568 549.252 240.449C533.978 265.676 526.565 292.649 513.38 307.753C495.903 323.528 519.264 340.295 514.993 375.027C510.722 409.76 483.271 408.258 492.322 433.996C507.024 474.751 510.697 503.138 507.248 521.571C501.191 562.361 461.972 557.195 430.009 527.752C411.107 510.828 397.048 494.873 384.474 482.963C368.716 464.878 348.083 500.585 328.142 500.608C293.905 500.095 300.147 460.229 271.41 477.777C259.594 484.847 246.564 493.239 232.04 503.187C198.14 525.364 172.54 530.258 154.658 526.074C117.835 523.227 104.731 483.549 112.606 445.735C117.298 423.831 128.901 402.594 146.904 389.254C169.415 372.565 204.65 360.117 215.818 329.397C224.169 308.919 171.909 282.034 185.46 244.227C193.98 219.483 222.499 207.994 224.1 188.679C225.82 167.92 226.834 151.133 226.625 141.679Z" stroke="white" stroke-width="3"/>
<path d="M241.431 162.027C235.363 113.418 283.289 125.984 293.23 151.821C309.043 192.561 326.52 205.06 355.775 217.983C369.966 226.9 374.227 193.624 397.734 189.357C421.241 185.091 430.883 217.856 444.251 203.483C464.957 181.694 483.952 174.339 498.934 176.367C513.492 177.485 524.606 187.857 529.764 202.555C534.556 216.372 534.069 233.966 526.163 251.227C510.181 273.869 506.608 302.97 495.446 317.51C480.525 331.582 500.16 346.252 495.992 376.033C491.825 405.815 467.669 404.314 474.901 425.849C486.902 460.169 489.634 483.918 486.321 499.243C480.863 533.883 446.772 529.114 418.763 503.767C401.938 489.135 389.129 475.535 377.563 465.875C363.703 450.622 345.622 481.468 328.078 481.828C298.238 481.77 303.112 447.907 278.087 463.089C267.55 469.303 256.026 476.549 243.273 485.048C212.982 503.965 190.602 506.831 175.543 501.986C144.083 499.19 132.992 464.871 139.92 432.183C144.123 413.114 154.3 394.652 170.01 383.014C190.929 367.51 221.925 356.196 231.624 327.587C238.811 309.458 193.926 285.756 205.399 252.705C212.563 230.837 236.856 220.314 238.277 203.183C239.794 184.889 241.119 170.193 241.431 162.027Z" stroke="white" stroke-width="3"/>
<path d="M255.595 181.46C251.107 140.821 291.705 151.513 300.216 173.634C315.194 212.132 331.747 221.922 358.364 231.471C370.503 238.744 374.482 210.629 394.526 206.76C414.57 202.89 423.055 229.959 434.54 217.977C452.476 199.814 468.831 194.101 481.59 196.418C493.856 197.644 503.202 206.765 507.351 219.493C511.195 231.486 510.408 246.628 503.025 261.313C486.302 281.428 486.563 312.728 477.399 326.739C465.004 339.146 480.953 351.755 476.881 376.66C472.809 401.566 451.896 400.062 457.326 417.448C466.649 445.421 468.446 464.592 465.262 476.848C460.391 505.424 431.357 501.04 407.244 479.725C392.462 467.349 380.875 456.071 370.293 448.635C358.302 436.175 342.736 462.237 327.553 462.936C302.047 463.333 305.564 435.388 284.198 448.243C274.919 453.615 264.877 459.733 253.868 466.804C227.123 482.51 207.917 483.355 195.648 477.838C169.486 475.084 160.385 446.038 166.382 418.395C170.104 402.113 178.876 386.378 192.326 376.415C211.696 362.056 238.519 351.847 246.769 325.277C252.806 309.453 215.202 288.875 224.62 260.497C230.444 241.448 250.562 231.865 251.806 216.876C253.123 201 254.761 188.359 255.595 181.46Z" stroke="white" stroke-width="3"/>
<path d="M270.383 200.892C267.486 168.229 300.65 177.046 307.708 195.449C321.811 231.713 337.394 238.791 361.301 244.96C371.355 250.586 375.042 227.637 391.571 224.165C408.099 220.693 415.405 242.06 424.975 232.469C440.095 217.935 453.766 213.867 464.267 216.475C474.21 217.808 481.763 225.678 484.893 236.437C487.779 246.606 486.694 259.295 479.854 271.402C462.436 288.99 466.527 322.507 459.386 335.993C449.549 346.733 461.771 357.282 457.805 377.307C453.839 397.332 436.226 395.825 439.838 409.058C446.46 430.676 447.318 445.264 444.272 454.448C440.001 476.956 416.102 472.955 395.948 455.675C383.247 445.556 372.914 436.601 363.345 431.394C353.254 421.73 340.243 443.005 327.462 444.044C306.357 444.897 308.509 422.874 290.858 433.4C282.862 437.932 274.328 442.921 265.094 448.563C241.965 461.054 225.983 459.873 216.537 453.68C195.742 450.969 188.655 427.2 193.704 404.604C196.936 391.11 204.279 378.105 215.434 369.816C233.203 356.6 255.781 347.496 262.561 322.961C267.432 309.442 237.209 291.988 244.548 268.285C249.016 252.057 264.906 243.413 265.969 230.564C267.083 217.108 269.029 206.523 270.383 200.892Z" stroke="white" stroke-width="3"/>
<path d="M284.756 220.322C283.437 195.646 309.346 202.586 314.99 217.268C328.299 251.309 343.005 255.67 364.338 258.451C372.362 262.428 375.779 244.649 388.881 241.574C401.983 238.498 408.15 254.156 415.859 246.959C428.244 236.059 439.306 233.64 447.608 236.541C455.28 237.983 461.08 244.602 463.207 253.389C465.15 261.733 463.76 271.969 457.423 281.496C439.202 296.556 447.159 332.315 442.004 345.283C434.673 354.356 443.232 362.842 439.348 377.981C435.465 393.12 421.053 391.608 422.866 400.681C426.819 415.934 426.74 425.931 423.814 432.037C420.119 448.466 401.224 444.849 384.92 431.608C374.229 423.749 365.091 417.121 356.481 414.147C348.235 407.284 337.709 423.766 327.258 425.146C310.441 426.458 311.236 410.367 297.204 418.562L296.814 418.775C290.174 422.4 283.229 426.192 275.862 430.322C256.221 439.593 243.377 436.379 236.705 429.505C221.167 426.834 216.056 408.347 220.185 390.804C222.945 380.101 228.9 369.828 237.82 363.215C254.09 351.139 272.547 343.14 277.894 320.633C281.625 309.42 258.621 295.091 263.919 276.067C267.054 262.661 278.801 254.954 279.69 244.248C280.605 233.212 282.872 224.684 284.756 220.322Z" stroke="white" stroke-width="3"/>
<path d="M299.508 240.695C299.779 224.113 318.23 229.146 322.416 240.042C334.833 271.707 348.55 273.332 367.148 272.713C373.079 275.024 376.199 262.494 385.773 259.829C395.347 257.164 400.328 267.044 406.116 262.273C415.672 255.055 424.04 254.294 430.076 257.476C435.417 259.019 439.419 264.358 440.526 271.135C441.51 277.617 439.825 285.353 434.039 292.257C415.151 304.723 426.92 342.561 423.791 354.95C419.024 362.317 423.85 368.702 420.078 378.889C416.307 389.075 405.209 387.566 405.205 392.439C406.456 401.26 405.44 406.623 402.655 409.624C399.565 419.903 385.822 416.686 373.493 407.542C364.895 401.978 357.022 397.706 349.434 396.977C343.097 392.944 335.137 404.562 327.098 406.277C314.698 408.041 314.129 397.952 303.827 403.779C298.358 406.611 292.802 409.323 287.071 412.085C271.068 418.096 261.461 412.864 257.617 405.34C247.457 402.723 244.363 389.599 247.54 377.186C249.808 369.322 254.328 361.826 260.944 356.918C275.593 346.037 289.786 339.178 293.658 318.801C296.22 309.944 280.616 298.805 283.831 284.544C285.609 274.018 293.118 267.285 293.826 258.767C294.537 250.201 297.108 243.768 299.508 240.695Z" stroke="white" stroke-width="3"/>
<path d="M314.478 260.152C316.332 251.607 327.384 254.749 330.125 261.892C341.668 291.252 354.418 290.152 370.317 286.144C374.174 286.797 377.003 279.476 383.078 277.214C389.153 274.953 392.96 279.092 396.843 276.731C403.594 273.168 409.291 274.06 413.081 277.527C416.11 279.175 418.327 283.249 418.42 288.035C418.451 292.673 416.47 297.933 411.225 302.237C391.649 312.142 407.226 352.129 406.11 363.967C403.889 369.647 405.006 373.951 401.341 379.221C397.675 384.49 389.862 382.98 388.05 383.676C386.614 386.104 384.664 386.857 382.016 386.768C379.524 390.938 370.89 388.112 362.502 383.035C355.976 379.747 349.352 377.815 342.773 379.323C338.328 378.105 332.912 384.896 327.263 386.948C319.244 389.167 317.316 385.04 310.711 388.52C306.519 390.502 302.465 392.076 298.5 393.398C286.098 396.171 279.7 388.917 278.664 380.73C273.845 378.16 272.755 370.357 274.988 363.033C276.768 357.983 279.867 353.241 284.198 350.023C297.252 340.311 307.22 334.574 309.628 316.28C311.03 309.753 302.77 301.771 303.916 292.23C304.345 284.556 307.647 278.778 308.176 272.426C308.684 266.304 311.562 261.946 314.478 260.152Z" stroke="white" stroke-width="3"/>
</svg>
