<?xml version="1.0" encoding="UTF-8"?>
<svg id="Layer_1" data-name="Layer 1" xmlns="http://www.w3.org/2000/svg" viewBox="0 0 97.78 24.18">
  <defs>
    <style>
      .cls-1 {
        fill: #9333ea;
      }

      .cls-1, .cls-2 {
        stroke-width: 0px;
      }

      .cls-2 {
        fill: #fff;
      }
    </style>
  </defs>
  <path class="cls-2" d="m10.01,24.18C3.86,24.18,0,20.62,0,15.03V0h5.82v15.03c0,2.89,1.56,4.39,4.19,4.39s4.19-1.5,4.19-4.39V0h5.82v15.03c0,5.59-3.86,9.15-10.01,9.15Z"/>
  <path class="cls-2" d="m29.14.03h6.72l8.51,23.61h-5.95l-1.53-4.46h-8.81l-1.53,4.46h-5.92L29.14.03Zm6.19,14.53l-2.83-8.28-2.83,8.28h5.65Z"/>
  <path class="cls-2" d="m64.29,7.92c0,4.89-3.53,7.92-9.31,7.92h-3.96v7.82h-5.82V.03h9.78c5.79,0,9.31,2.99,9.31,7.88Zm-9.71,3.16c2.36,0,3.79-1.06,3.79-3.16s-1.43-3.13-3.79-3.13h-3.56v6.29h3.56Z"/>
  <path class="cls-1" d="m65.22,14.83c0-5.59,3.46-9.21,8.71-9.21s8.71,3.63,8.71,9.21-3.46,9.21-8.71,9.21-8.71-3.63-8.71-9.21Zm8.71,5.72c2.73,0,4.29-2.1,4.29-5.72s-1.56-5.72-4.29-5.72-4.29,2.1-4.29,5.72,1.56,5.72,4.29,5.72Z"/>
  <path class="cls-1" d="m89,.03v18.99c0,.83.43,1.26,1.23,1.26h1.36v3.36h-2.49c-2.63,0-4.42-1.63-4.42-4.42V.03h4.32Z"/>
  <path class="cls-1" d="m97.72,6.02v17.63h-4.32V6.02h4.32Z"/>
  <path class="cls-2" d="m93.33.03h4.46v3.53h-4.46V.03Z"/>
</svg>