<?xml version="1.0" encoding="utf-8"?>
<!-- Generator: Adobe Illustrator 27.6.1, SVG Export Plug-In . SVG Version: 6.00 Build 0)  -->
<svg version="1.1" id="Capa_1" xmlns="http://www.w3.org/2000/svg" xmlns:xlink="http://www.w3.org/1999/xlink" x="0px" y="0px"
	 viewBox="0 0 512 512" style="enable-background:new 0 0 512 512;" xml:space="preserve">
<style type="text/css">
	.st0{fill:#7D528E;}
	.st1{fill:#25274D;}
	.st2{fill:#A972FF;}
	.st3{fill:#895DFF;}
	.st4{fill:#E3E6E9;}
	.st5{fill:#B6B8BE;}
	.st6{fill:#8F8691;}
</style>
<g>
	<path class="st0" d="M264,141.01V124c0-4.42-3.58-8-8-8s-8,3.58-8,8v17.01c2.56-0.66,5.24-1.01,8-1.01
		C258.76,140,261.44,140.35,264,141.01z"/>
	<path class="st1" d="M256,164h21.44h9.55c-2.89-11.24-11.75-20.1-22.99-22.99c-2.56-0.66-5.24-1.01-8-1.01s-5.44,0.35-8,1.01
		c-11.24,2.89-20.1,11.75-22.99,22.99h9.55H256z"/>
	<path class="st2" d="M380.28,260l-52.12-78.19c-7.44-11.16-19.88-17.81-33.28-17.81h-1.11l32,96L380.28,260L380.28,260z"/>
	<path class="st2" d="M277.75,166.53c-0.28-0.84-0.31-1.69-0.31-2.53H256v96h52.9L277.75,166.53z"/>
	<path class="st3" d="M218.23,164h-1.11c-13.41,0-25.84,6.66-33.28,17.81L131.72,260h54.52L218.23,164z"/>
	<path class="st3" d="M256,164h-21.44c0,0.84-0.03,1.69-0.31,2.53L203.09,260H256L256,164L256,164z"/>
	<path class="st3" d="M277.75,166.53L308.9,260h16.86l-32-96h-6.77h-9.55C277.44,164.84,277.47,165.69,277.75,166.53z"/>
	<path class="st0" d="M203.09,260l31.15-93.47c0.28-0.84,0.31-1.69,0.31-2.53h-9.55h-6.77l-32,96H203.09z"/>
	<path class="st1" d="M128,348c-0.69,0-1.39-0.09-2.06-0.27l-2.47-0.66l33.58,40.29c4.57,5.49,11.3,8.64,18.44,8.64H256v-48L128,348
		L128,348z"/>
	<path class="st0" d="M384,348H256v48h80.51c7.14,0,13.87-3.15,18.44-8.63l33.58-40.3l-2.47,0.66C385.39,347.9,384.69,348,384,348z"
		/>
	<path class="st4" d="M511.22,304.57C510.36,302.75,489.03,260,400,260h-19.72h-54.52H308.9H256v16v32h255.99
		c0,1.15-0.24,2.29-0.73,3.36C512.26,309.2,512.24,306.71,511.22,304.57z"/>
	<path class="st5" d="M256,308v-32v-16h-52.9h-16.86h-54.52H112C22.97,260,1.64,302.75,0.77,304.57c-1.02,2.14-1.03,4.63-0.03,6.79
		c-0.49-1.07-0.73-2.21-0.73-3.36H256z"/>
	<path class="st6" d="M128,348h128v-16v-24H0.01c0,1.15,0.24,2.29,0.73,3.36c0.99,2.16,2.9,3.76,5.2,4.37l117.53,31.34l2.47,0.66
		C126.61,347.9,127.3,348,128,348z"/>
	<path class="st5" d="M256,308v24v16h128c0.7,0,1.39-0.09,2.06-0.27l2.47-0.66l117.53-31.34c2.3-0.61,4.2-2.21,5.2-4.37
		c0.49-1.07,0.73-2.21,0.73-3.36L256,308L256,308z"/>
</g>
</svg>
